<svg width="106" height="106" viewBox="0 0 106 106" fill="none" xmlns="http://www.w3.org/2000/svg">
<g clip-path="url(#clip0_184_238)">
<mask id="mask0_184_238" style="mask-type:luminance" maskUnits="userSpaceOnUse" x="0" y="0" width="106" height="106">
<path d="M106 0H0V106H106V0Z" fill="white"/>
</mask>
<g mask="url(#mask0_184_238)">
<path d="M56.3125 106H49.6875C47.0519 106 44.5242 104.953 42.6606 103.089C40.797 101.226 39.75 98.6981 39.75 96.0625V56.3125C39.75 53.6769 40.797 51.1492 42.6606 49.2856C44.5242 47.422 47.0519 46.375 49.6875 46.375H56.3125C58.9481 46.375 61.4758 47.422 63.3394 49.2856C65.203 51.1492 66.25 53.6769 66.25 56.3125V76.1875C66.25 77.066 65.9011 77.9087 65.2799 78.5299C64.6587 79.1511 63.816 79.5 62.9375 79.5C62.059 79.5 61.2163 79.1511 60.5951 78.5299C59.9739 77.9087 59.625 77.066 59.625 76.1875V56.3125C59.625 55.434 59.2761 54.5913 58.6549 53.9701C58.0337 53.3489 57.191 53 56.3125 53H49.6875C48.809 53 47.9663 53.3489 47.3451 53.9701C46.7239 54.5913 46.375 55.434 46.375 56.3125V96.0625C46.375 96.941 46.7239 97.7837 47.3451 98.4049C47.9663 99.0261 48.809 99.375 49.6875 99.375H56.3125C57.191 99.375 58.0337 99.0261 58.6549 98.4049C59.2761 97.7837 59.625 96.941 59.625 96.0625V89.4375C59.625 88.559 59.9739 87.7163 60.5951 87.0951C61.2163 86.4739 62.059 86.125 62.9375 86.125C63.816 86.125 64.6587 86.4739 65.2799 87.0951C65.9011 87.7163 66.25 88.559 66.25 89.4375V96.0625C66.25 98.6981 65.203 101.226 63.3394 103.089C61.4758 104.953 58.9481 106 56.3125 106Z" fill="#04009A"/>
<path d="M23.1875 106H16.5625C13.9269 106 11.3993 104.953 9.53563 103.089C7.67199 101.226 6.625 98.6981 6.625 96.0625V76.1875C6.625 73.5519 7.67199 71.0242 9.53563 69.1606C11.3993 67.297 13.9269 66.25 16.5625 66.25H23.1875C25.8231 66.25 28.3508 67.297 30.2144 69.1606C32.078 71.0242 33.125 73.5519 33.125 76.1875V96.0625C33.125 98.6981 32.078 101.226 30.2144 103.089C28.3508 104.953 25.8231 106 23.1875 106ZM16.5625 72.875C15.684 72.875 14.8414 73.2239 14.2202 73.8451C13.599 74.4663 13.25 75.309 13.25 76.1875V96.0625C13.25 96.941 13.599 97.7837 14.2202 98.4049C14.8414 99.0261 15.684 99.375 16.5625 99.375H23.1875C24.066 99.375 24.9087 99.0261 25.5299 98.4049C26.1511 97.7837 26.5 96.941 26.5 96.0625V76.1875C26.5 75.309 26.1511 74.4663 25.5299 73.8451C24.9087 73.2239 24.066 72.875 23.1875 72.875H16.5625Z" fill="#04009A"/>
<path d="M89.4375 106H82.8125C80.1769 106 77.6492 104.953 75.7856 103.089C73.922 101.226 72.875 98.6981 72.875 96.0625V43.0625C72.875 40.4269 73.922 37.8992 75.7856 36.0356C77.6492 34.172 80.1769 33.125 82.8125 33.125H89.4375C92.0731 33.125 94.6008 34.172 96.4644 36.0356C98.328 37.8992 99.375 40.4269 99.375 43.0625V56.3125C99.375 57.191 99.0261 58.0337 98.4049 58.6549C97.7837 59.2761 96.941 59.625 96.0625 59.625C95.184 59.625 94.3413 59.2761 93.7201 58.6549C93.0989 58.0337 92.75 57.191 92.75 56.3125V43.0625C92.75 42.184 92.4011 41.3413 91.7799 40.7201C91.1587 40.0989 90.316 39.75 89.4375 39.75H82.8125C81.934 39.75 81.0913 40.0989 80.4701 40.7201C79.8489 41.3413 79.5 42.184 79.5 43.0625V96.0625C79.5 96.941 79.8489 97.7837 80.4701 98.4049C81.0913 99.0261 81.934 99.375 82.8125 99.375H89.4375C90.316 99.375 91.1587 99.0261 91.7799 98.4049C92.4011 97.7837 92.75 96.941 92.75 96.0625V69.5625C92.75 68.684 93.0989 67.8413 93.7201 67.2201C94.3413 66.5989 95.184 66.25 96.0625 66.25C96.941 66.25 97.7837 66.5989 98.4049 67.2201C99.0261 67.8413 99.375 68.684 99.375 69.5625V96.0625C99.375 98.6981 98.328 101.226 96.4644 103.089C94.6008 104.953 92.0731 106 89.4375 106Z" fill="#04009A"/>
<path d="M19.875 53C17.9096 53 15.9882 52.4173 14.354 51.3252C12.7198 50.2332 11.4461 48.6812 10.6939 46.8655C9.94181 45.0496 9.745 43.0515 10.1285 41.1238C10.5119 39.1962 11.4584 37.4256 12.8481 36.0356C14.2379 34.6459 16.0086 33.6994 17.9363 33.3161C19.864 32.9325 21.8621 33.1292 23.678 33.8814C25.4937 34.6336 27.0457 35.9073 28.1377 37.5415C29.2297 39.1759 29.8125 41.0971 29.8125 43.0625C29.8125 45.6982 28.7655 48.2258 26.9019 50.0895C25.0383 51.9531 22.5106 53 19.875 53ZM19.875 39.75C19.2199 39.75 18.5794 39.9444 18.0347 40.3083C17.4899 40.6722 17.0654 41.1897 16.8147 41.795C16.5639 42.4003 16.4984 43.0663 16.6261 43.7087C16.754 44.3513 17.0694 44.9416 17.5327 45.4049C17.996 45.868 18.5862 46.1836 19.2288 46.3114C19.8713 46.4393 20.5374 46.3737 21.1427 46.1228C21.7479 45.8722 22.2653 45.4475 22.6292 44.903C22.9932 44.3582 23.1875 43.7178 23.1875 43.0625C23.1875 42.1841 22.8386 41.3414 22.2174 40.7202C21.5961 40.099 20.7535 39.75 19.875 39.75Z" fill="#77ACF1"/>
<path d="M53 33.125C51.0346 33.125 49.1134 32.5422 47.479 31.4502C45.8448 30.3582 44.5711 28.8062 43.8189 26.9905C43.0667 25.1746 42.87 23.1765 43.2536 21.2488C43.6369 19.3211 44.5834 17.5504 45.9731 16.1606C47.3631 14.7709 49.1337 13.8244 51.0613 13.441C52.989 13.0575 54.9871 13.2543 56.803 14.0064C58.6187 14.7586 60.1709 16.0323 61.2627 17.6665C62.3548 19.3007 62.9375 21.2221 62.9375 23.1875C62.9375 25.8231 61.8906 28.3508 60.027 30.2144C58.1633 32.078 55.6357 33.125 53 33.125ZM53 19.875C52.3448 19.875 51.7044 20.0693 51.1596 20.4333C50.615 20.7972 50.1904 21.3146 49.9397 21.9199C49.6891 22.5252 49.6233 23.1913 49.7511 23.8337C49.879 24.4763 50.1946 25.0666 50.6577 25.5299C51.121 25.993 51.7113 26.3085 52.3539 26.4364C52.9963 26.5643 53.6623 26.4987 54.2676 26.2478C54.8729 25.9972 55.3903 25.5725 55.7543 25.0279C56.1182 24.4831 56.3125 23.8427 56.3125 23.1875C56.3125 22.309 55.9636 21.4664 55.3424 20.8452C54.7212 20.224 53.8785 19.875 53 19.875Z" fill="#77ACF1"/>
<path d="M86.125 19.875C84.1596 19.875 82.2384 19.2922 80.604 18.2002C78.9698 17.1083 77.6961 15.5563 76.9439 13.7404C76.1917 11.9246 75.995 9.92648 76.3786 7.9988C76.7619 6.07111 77.7084 4.30042 79.0981 2.91063C80.4881 1.52085 82.2587 0.574392 84.1864 0.190951C86.114 -0.19249 88.1121 0.00430571 89.928 0.756451C91.7437 1.5086 93.2959 2.7823 94.3877 4.41653C95.4798 6.05075 96.0625 7.97206 96.0625 9.9375C96.0625 12.5731 95.0156 15.1007 93.152 16.9644C91.2883 18.828 88.7607 19.875 86.125 19.875ZM86.125 6.625C85.4698 6.625 84.8294 6.81929 84.2846 7.18327C83.74 7.54724 83.3154 8.06459 83.0647 8.66987C82.8141 9.27515 82.7483 9.94119 82.8761 10.5837C83.004 11.2263 83.3196 11.8165 83.7827 12.2798C84.246 12.7431 84.8363 13.0585 85.4789 13.1864C86.1213 13.3142 86.7873 13.2486 87.3926 12.9979C87.9979 12.7471 88.5153 12.3226 88.8793 11.7778C89.2432 11.2331 89.4375 10.5926 89.4375 9.9375C89.4375 9.05898 89.0886 8.21644 88.4674 7.59521C87.8462 6.974 87.0035 6.625 86.125 6.625Z" fill="#77ACF1"/>
<path d="M25.5426 42.9629C24.8188 42.9611 24.1154 42.7219 23.5401 42.2825C22.9649 41.8428 22.5495 41.2269 22.3576 40.5288C22.1657 39.8308 22.2076 39.0892 22.477 38.4172C22.7467 37.7452 23.229 37.1801 23.85 36.8085L45.6462 23.7572C46.3964 23.3712 47.2654 23.286 48.076 23.5189C48.8867 23.7517 49.5781 24.285 50.009 25.0102C50.4401 25.7352 50.5783 26.5974 50.3952 27.4208C50.2124 28.2441 49.7224 28.9669 49.025 29.4415L27.2287 42.4925C26.719 42.7977 26.1367 42.9602 25.5426 42.9629Z" fill="#77ACF1"/>
<path d="M59.1281 24.0487C58.3576 24.0495 57.611 23.7814 57.0167 23.2912C56.4224 22.8007 56.0177 22.1186 55.8721 21.3619C55.7266 20.6052 55.8494 19.8215 56.2195 19.1457C56.5894 18.4698 57.1834 17.9441 57.8992 17.6589L78.7679 9.31474C79.1734 9.14532 79.6084 9.05826 80.0479 9.05859C80.4871 9.05895 80.9221 9.14669 81.3271 9.31675C81.7324 9.48681 82.0996 9.73576 82.4077 10.0491C82.7155 10.3625 82.9582 10.734 83.1212 11.142C83.2842 11.55 83.3646 11.9864 83.3573 12.4257C83.35 12.8651 83.2555 13.2985 83.079 13.701C82.9026 14.1034 82.6479 14.4667 82.3297 14.7697C82.0115 15.0727 81.6363 15.3095 81.2258 15.4661L60.357 23.8102C59.9666 23.9683 59.5492 24.0491 59.1281 24.0487Z" fill="#77ACF1"/>
</g>
</g>
<defs>
<clipPath id="clip0_184_238">
<rect width="106" height="106" fill="white"/>
</clipPath>
</defs>
</svg>
