<svg width="97" height="97" viewBox="0 0 97 97" fill="none" xmlns="http://www.w3.org/2000/svg">
<g clip-path="url(#clip0_184_218)">
<mask id="mask0_184_218" style="mask-type:luminance" maskUnits="userSpaceOnUse" x="0" y="0" width="97" height="97">
<path d="M97 0H0V97H97V0Z" fill="white"/>
</mask>
<g mask="url(#mask0_184_218)">
<path d="M51.4099 13.0949C51.4099 11.4111 51.0286 9.74918 50.2949 8.2337C49.5611 6.71822 48.4937 5.38853 47.1729 4.3443C45.8518 3.3001 44.3118 2.56846 42.6678 2.20426C41.0239 1.84005 39.3187 1.85273 37.6804 2.24134C36.0421 2.62995 34.5129 3.38441 33.2077 4.44815C31.9024 5.5119 30.855 6.85731 30.1439 8.38354C29.4326 9.90978 29.0761 11.5772 29.1012 13.2608C29.1262 14.9444 29.532 16.6005 30.2882 18.105C28.9534 17.3619 27.4507 16.9728 25.9232 16.9749C20.5882 16.9749 16.2232 21.7523 16.2232 27.6448C16.2011 30.413 17.205 33.091 19.041 35.1625C18.3636 35.0043 17.6706 34.923 16.9749 34.92C10.8154 34.92 5.81995 41.0019 5.81995 48.5C5.81995 55.9981 10.8154 62.08 16.9749 62.08C17.6787 62.0786 18.38 61.9974 19.0653 61.8375C17.2292 63.9089 16.2254 66.5869 16.2474 69.355C16.2474 75.2478 20.6124 80.025 25.9474 80.025C27.475 80.027 28.9777 79.638 30.3124 78.8948C29.5472 80.3995 29.1333 82.0582 29.102 83.746C29.0706 85.4338 29.4229 87.1066 30.132 88.6384C30.8413 90.1704 31.8887 91.5213 33.1958 92.5895C34.5028 93.658 36.0352 94.4156 37.6778 94.8056C39.3201 95.1956 41.0295 95.2077 42.6775 94.8412C44.3253 94.4746 45.8682 93.7388 47.1904 92.6894C48.5127 91.6398 49.5793 90.304 50.3102 88.7823C51.0411 87.2606 51.4172 85.593 51.4099 83.905C51.4099 83.7401 51.4099 83.5801 51.4099 83.42V13.5799C51.4099 13.4199 51.4099 13.2598 51.4099 13.0949Z" stroke="#04009A" stroke-width="5" stroke-linejoin="bevel"/>
<path d="M32.6211 91.7912C34.7133 93.8834 37.5509 95.0589 40.5096 95.0589C43.4683 95.0589 46.306 93.8834 48.3981 91.7912C50.4903 89.699 51.6656 86.8616 51.6656 83.9027C51.6656 80.944 50.4903 78.1063 48.3981 76.0142H42.1465" stroke="#04009A" stroke-width="5" stroke-miterlimit="10"/>
<path d="M32.136 5.20901C34.2352 3.15416 37.0604 2.01031 39.9978 2.02579C42.9353 2.04125 45.7481 3.21481 47.8255 5.29164C49.9032 7.36847 51.0775 10.1809 51.0938 13.1184C51.1102 16.0559 49.9672 18.8813 47.913 20.9812H42.5198" stroke="#04009A" stroke-width="5" stroke-miterlimit="10"/>
<path d="M51.41 46.075H39.285L23.8862 60.5086" stroke="#04009A" stroke-width="5" stroke-miterlimit="10"/>
<path d="M21.8104 42.0254L30.2882 54.0485" stroke="#04009A" stroke-width="5" stroke-miterlimit="10"/>
<path d="M30.2882 78.895L36.1325 70.8101" stroke="#04009A" stroke-width="5" stroke-miterlimit="10"/>
<path d="M30.2882 18.1826L34.435 24.735V34.4351" stroke="#04009A" stroke-width="5" stroke-miterlimit="10"/>
<path d="M73.7199 48.5H50.4399" stroke="#04009A" stroke-width="5" stroke-miterlimit="10"/>
<path d="M51.8949 63.5349H63.5349L69.3549 74.0449" stroke="#04009A" stroke-width="5" stroke-miterlimit="10"/>
<path d="M51.8949 33.9501H63.5349L69.3549 23.4402" stroke="#04009A" stroke-width="5" stroke-miterlimit="10"/>
<path d="M82.9349 56.26C87.2207 56.26 90.6949 52.7858 90.6949 48.5C90.6949 44.2144 87.2207 40.74 82.9349 40.74C78.6491 40.74 75.1749 44.2144 75.1749 48.5C75.1749 52.7858 78.6491 56.26 82.9349 56.26Z" stroke="#04009A" stroke-width="5" stroke-miterlimit="10"/>
<path d="M72.265 90.2099C76.5508 90.2099 80.025 86.7355 80.025 82.4499C80.025 78.1642 76.5508 74.6899 72.265 74.6899C67.9792 74.6899 64.505 78.1642 64.505 82.4499C64.505 86.7355 67.9792 90.2099 72.265 90.2099Z" stroke="#04009A" stroke-width="5" stroke-miterlimit="10"/>
<path d="M72.265 22.3101C76.5508 22.3101 80.025 18.8358 80.025 14.55C80.025 10.2643 76.5508 6.79004 72.265 6.79004C67.9792 6.79004 64.505 10.2643 64.505 14.55C64.505 18.8358 67.9792 22.3101 72.265 22.3101Z" stroke="#04009A" stroke-width="5" stroke-miterlimit="10"/>
</g>
</g>
<defs>
<clipPath id="clip0_184_218">
<rect width="97" height="97" fill="white"/>
</clipPath>
</defs>
</svg>
