<svg width="50" height="50" viewBox="0 0 50 50" fill="none" xmlns="http://www.w3.org/2000/svg">
<path d="M3.27725 3.34276V6.62002H2.45794H1.63863V5.39105V4.16208H0.819313H0V6.21036V8.25864H3.41039H6.82078L7.60937 9.64123C8.03951 10.3991 8.39796 11.075 8.39796 11.1365C8.39796 11.1979 8.2341 11.5257 8.03951 11.8534C6.88223 13.748 5.97075 16.5644 5.7864 18.7561C5.75568 19.1453 5.70447 19.7188 5.68399 20.0055L5.63278 20.5483H9.77031H13.9078L13.9693 20.3128C14 20.1899 14.0307 19.9236 14.0307 19.7188C14.0307 19.0838 14.5018 17.4452 14.932 16.5952C15.6182 15.233 16.7242 13.9426 17.8405 13.195C18.0556 13.0619 18.2297 12.8878 18.2297 12.8161C18.2297 12.6932 14.594 5.71877 14.4506 5.56515C14.2458 5.36032 11.1734 7.7773 10.18 8.91409C9.91369 9.23158 9.65765 9.48761 9.62693 9.48761C9.59621 9.48761 9.25824 8.94482 8.87931 8.27912L8.19313 7.07064V4.79704V2.52345H7.37382H6.55451V4.57173V6.62002H5.73519H4.91588V3.34276V0.0655098H4.09657H3.27725V3.34276ZM15.0651 10.4708L16.0278 12.3347L15.3314 13.0311C13.9795 14.383 13.0168 16.124 12.556 18.0085L12.3409 18.9097H9.92393H7.50696L7.6401 18.0597C7.8142 17.0048 8.21362 15.6222 8.63351 14.6186L8.96124 13.8402L9.01245 14.5059C9.10462 15.7554 9.842 16.4518 11.0607 16.4518C12.3204 16.4518 13.109 15.6632 13.109 14.3932C13.109 13.83 13.0578 13.6456 12.812 13.2565C12.515 12.7853 11.8391 12.3552 11.4089 12.3552C11.2758 12.3552 11.1017 12.1709 10.8866 11.7919L10.5589 11.2287L11.0505 10.6347C11.583 10.0099 12.8325 8.78095 13.406 8.32009L13.7542 8.04357L13.9283 8.33033C14.0205 8.48395 14.5326 9.45689 15.0651 10.4708ZM11.3168 14.4035C11.3168 14.5878 11.2553 14.6698 11.0812 14.6903C10.8354 14.7312 10.692 14.5059 10.7945 14.2396C10.8252 14.1475 10.9481 14.0962 11.0812 14.1167C11.2553 14.1372 11.3168 14.2191 11.3168 14.4035Z" fill="url(#paint0_linear_184_79)"/>
<path d="M20.2372 3.49642C19.7353 3.57835 18.9775 3.74222 18.5473 3.85487C17.4617 4.14163 15.7719 4.78684 15.7719 4.8995C15.7719 5.00191 19.5203 11.9456 19.6534 12.0685C19.6944 12.1197 20.186 12.0378 20.739 11.8944C26.3206 10.4708 31.8509 14.7108 31.8509 20.4152V21.4599L31.5232 21.5111C31.3389 21.5418 30.9087 21.593 30.5708 21.6237C29.6798 21.7057 28.4713 22.0436 27.4574 22.484C24.8356 23.6106 22.521 25.9866 21.4559 28.6493L21.1896 29.3355L20.6059 29.1819C19.6944 28.9566 18.0455 28.0963 17.2876 27.4716C15.9051 26.3245 14.8195 24.6757 14.3176 22.9449L14.1026 22.187H9.91382H5.71484L5.78653 22.6171C6.32933 26.0685 7.37395 28.5981 9.27886 31.0766C9.63731 31.5374 9.93431 31.9368 9.93431 31.9573C9.93431 31.988 9.17644 32.6333 8.24447 33.4116L6.55464 34.8147V37.5184V40.2119H7.37395H8.19327V37.9793V35.7569L9.43248 34.7327C10.1084 34.1695 10.8048 33.6062 10.9584 33.473L11.2452 33.2477L11.7982 33.7188C12.638 34.446 14.3586 35.5623 15.4135 36.0641C17.0623 36.8527 19.1106 37.4467 21.1179 37.7028C21.5993 37.7642 21.5993 37.7642 22.0397 38.5835C23.4837 41.2872 26.1362 43.3355 29.2803 44.1753C30.1509 44.4109 30.4683 44.4416 32.0558 44.4518C33.5715 44.4518 33.9811 44.4211 34.7493 44.2265C35.6505 44.0012 37.197 43.4072 37.6271 43.1307C37.8524 42.9873 37.9753 43.0795 41.4471 46.3363C43.4135 48.19 45.1853 49.7671 45.3798 49.8491C45.9738 50.0949 46.9673 50.0334 47.633 49.7159C48.3601 49.3575 49.3842 48.2924 49.7324 47.5448C50.0807 46.7766 50.0909 45.8037 49.7529 45.1687C49.5891 44.8615 48.4215 43.694 46.0046 41.4306C43.3111 38.9112 42.502 38.1022 42.5635 37.969C42.8912 37.2214 43.3418 35.6852 43.4852 34.8864C43.8232 32.9507 43.5466 30.4826 42.7888 28.6596C42.1845 27.2053 41.0272 25.4745 40.1055 24.6654L39.7778 24.3787L39.9519 23.3033C40.2182 21.7774 40.2079 19.2068 39.9417 17.6193C39.3477 14.168 37.6373 10.8702 35.1282 8.3611L34.5444 7.77734L35.5378 6.40498L36.521 5.03263L42.84 5.00191L49.1589 4.98143V4.16212V3.3428H42.3586H35.5481L34.401 4.9507C33.7661 5.84171 33.2335 6.58933 33.2233 6.59957C33.213 6.62006 32.7419 6.35378 32.1889 6.00557C30.3967 4.87901 28.4405 4.08018 26.4435 3.6398C25.1223 3.35304 21.6095 3.27111 20.2372 3.49642ZM24.3337 5.12481C25.9621 5.22722 27.7441 5.70857 29.4749 6.52788C30.6322 7.07068 32.1787 8.04361 32.0967 8.17675C32.066 8.21772 31.7895 8.25868 31.472 8.25868C30.2942 8.25868 29.4954 9.08824 29.4954 10.307C29.4954 11.5667 30.284 12.3553 31.5437 12.3553C32.3732 12.3553 32.957 12.0378 33.3462 11.3721C33.6022 10.9419 33.6125 10.8498 33.5613 10.0714L33.51 9.23162L34.186 9.94852C36.3674 12.2528 37.7193 14.9771 38.2518 18.1724C38.3952 19.0019 38.4157 19.6267 38.385 21.04C38.3542 22.0334 38.303 22.9346 38.2518 23.0268C38.1904 23.1804 38.1289 23.1702 37.6578 22.9039C36.6644 22.3509 35.4662 21.9515 33.8275 21.6135C33.6022 21.5725 33.592 21.5316 33.592 20.3845C33.592 19.0224 33.4076 18.0085 32.9365 16.7386C32.3835 15.2638 31.7383 14.2909 30.4683 13.0209C29.2087 11.7612 28.2255 11.1058 26.7507 10.5528C25.2555 9.99973 24.3747 9.86658 22.5415 9.92804C21.6607 9.95876 20.8517 10.01 20.739 10.0407C20.5649 10.0919 20.3908 9.82562 19.4076 8.00265C18.7931 6.84537 18.2913 5.86219 18.3015 5.82122C18.363 5.52422 22.0089 4.94046 23.1969 5.05312C23.371 5.06336 23.8729 5.09409 24.3337 5.12481ZM31.7997 10.307C31.7997 10.4913 31.7383 10.5732 31.5642 10.5937C31.431 10.6142 31.3081 10.563 31.2774 10.4708C31.175 10.2046 31.3184 9.97924 31.5642 10.0202C31.7383 10.0407 31.7997 10.1226 31.7997 10.307ZM34.2474 23.4774C37.3813 24.1841 40.1772 26.6113 41.2628 29.5813C41.7441 30.882 41.8261 31.4043 41.8261 33.0429C41.8261 34.9376 41.652 35.7057 40.8634 37.2931C39.6242 39.8125 37.2891 41.7379 34.5649 42.4753C33.4588 42.7825 30.919 42.8132 29.9051 42.5367C27.8465 41.9734 26.4332 41.1439 25.0609 39.7101C20.5239 34.9581 21.8963 27.2463 27.8056 24.2558C28.5839 23.8666 29.9665 23.4365 30.8268 23.3136C31.6973 23.1907 33.3155 23.2726 34.2474 23.4774ZM12.8531 24.1022C12.976 24.6142 13.6929 26.0173 14.164 26.6932C15.5671 28.6698 17.8612 30.288 20.0938 30.8615C20.7492 31.0356 20.78 31.0458 20.7083 31.3019C20.5751 31.773 20.6468 34.4972 20.8107 35.2141C20.995 36.0334 21.0872 35.9924 19.6841 35.6954C17.9226 35.3063 16.1304 34.5689 14.5942 33.5755C13.7031 33.0019 12.5664 32.1109 12.638 32.0392C12.6688 32.0085 13.0272 31.9983 13.4266 32.0085C14.0411 32.029 14.2152 31.988 14.5942 31.7627C15.2496 31.3838 15.5671 30.7898 15.5671 29.9705C15.5671 28.7108 14.7785 27.9222 13.5188 27.9222C12.6892 27.9222 12.1055 28.2397 11.7266 28.8951C11.5012 29.2741 11.4603 29.4482 11.4808 30.0422C11.491 30.4313 11.4603 30.7386 11.3988 30.7591C11.1735 30.841 9.78069 28.8337 9.07403 27.4204C8.64389 26.5806 8.0294 24.901 7.84506 24.1022L7.78361 23.8256H10.2825H12.7814L12.8531 24.1022ZM13.7748 29.9705C13.7748 30.1548 13.7134 30.2368 13.5393 30.2572C13.2935 30.2982 13.1501 30.0729 13.2525 29.8066C13.2832 29.7144 13.4061 29.6632 13.5393 29.6837C13.7134 29.7042 13.7748 29.7861 13.7748 29.9705ZM45.1443 43.0693C46.8341 44.6567 48.2372 46.0393 48.2679 46.1417C48.4523 46.8483 46.9365 48.4358 46.2504 48.2617C46.0865 48.2207 41.4369 43.9705 39.7471 42.3114L39.3989 41.9734L40.085 41.3385C40.4537 40.9902 40.9248 40.4782 41.1297 40.2017L41.4983 39.6998L41.7953 39.9456C41.949 40.0788 43.4647 41.4818 45.1443 43.0693Z" fill="url(#paint1_linear_184_79)"/>
<path d="M30.7037 24.645C29.8332 24.7986 29.0446 25.0649 28.1127 25.5463C27.3548 25.9354 27.0066 26.2017 26.1566 27.0415C25.3168 27.8915 25.0505 28.2397 24.6613 28.9976C24.0366 30.2061 23.7601 31.2098 23.6884 32.5002C23.4631 36.4841 25.8288 39.915 29.6489 41.1337C30.6116 41.4409 32.793 41.5331 33.8581 41.3078C36.91 40.6626 39.2861 38.4812 40.2487 35.4497C40.5662 34.446 40.6482 32.3875 40.4126 31.2507C39.7264 27.9427 37.0637 25.3312 33.7147 24.686C32.9056 24.5324 31.4923 24.5119 30.7037 24.645ZM33.5406 26.4373C35.4148 26.8264 37.248 28.2602 38.0776 29.9705C38.6408 31.1073 38.8149 31.855 38.8149 33.0225C38.8149 34.6509 38.2926 36.1052 37.2583 37.3239C35.9269 38.8908 34.1961 39.6999 32.1375 39.7101C30.1609 39.7101 28.5735 39.0137 27.1705 37.5185C25.1836 35.3883 24.8457 32.1212 26.3409 29.5814C26.771 28.844 27.959 27.656 28.6862 27.2258C30.1405 26.3758 31.8713 26.0891 33.5406 26.4373Z" fill="url(#paint2_linear_184_79)"/>
<path d="M39.3271 7.43935V8.25867H41.3754H43.4237V7.43935V6.62004H41.3754H39.3271V7.43935Z" fill="url(#paint3_linear_184_79)"/>
<path d="M45.0623 7.43935V8.25867H47.1105H49.1588V7.43935V6.62004H47.1105H45.0623V7.43935Z" fill="url(#paint4_linear_184_79)"/>
<path d="M39.3271 10.7166V11.5359H44.243H49.1589V10.7166V9.89726H44.243H39.3271V10.7166Z" fill="url(#paint5_linear_184_79)"/>
<path d="M0 42.6698V43.4891H3.27725H6.55451V42.6698V41.8505H3.27725H0V42.6698Z" fill="url(#paint6_linear_184_79)"/>
<path d="M8.19312 42.6698V43.4891H12.6993H17.2056V42.6698V41.8505H12.6993H8.19312V42.6698Z" fill="url(#paint7_linear_184_79)"/>
<path d="M0 45.947V46.7664H8.60279H17.2056V45.947V45.1277H8.60279H0V45.947Z" fill="url(#paint8_linear_184_79)"/>
<defs>
<linearGradient id="paint0_linear_184_79" x1="9.11486" y1="20.5483" x2="9.11486" y2="0.0655098" gradientUnits="userSpaceOnUse">
<stop stop-color="#6299D0"/>
<stop offset="1" stop-color="#12235E"/>
</linearGradient>
<linearGradient id="paint1_linear_184_79" x1="27.8575" y1="50" x2="27.8575" y2="3.3428" gradientUnits="userSpaceOnUse">
<stop stop-color="#6299D0"/>
<stop offset="1" stop-color="#12235E"/>
</linearGradient>
<linearGradient id="paint2_linear_184_79" x1="32.1109" y1="41.4327" x2="32.1109" y2="24.5567" gradientUnits="userSpaceOnUse">
<stop stop-color="#6299D0"/>
<stop offset="1" stop-color="#12235E"/>
</linearGradient>
<linearGradient id="paint3_linear_184_79" x1="41.3754" y1="8.25867" x2="41.3754" y2="6.62004" gradientUnits="userSpaceOnUse">
<stop stop-color="#6299D0"/>
<stop offset="1" stop-color="#12235E"/>
</linearGradient>
<linearGradient id="paint4_linear_184_79" x1="47.1105" y1="8.25867" x2="47.1105" y2="6.62004" gradientUnits="userSpaceOnUse">
<stop stop-color="#6299D0"/>
<stop offset="1" stop-color="#12235E"/>
</linearGradient>
<linearGradient id="paint5_linear_184_79" x1="44.243" y1="11.5359" x2="44.243" y2="9.89726" gradientUnits="userSpaceOnUse">
<stop stop-color="#6299D0"/>
<stop offset="1" stop-color="#12235E"/>
</linearGradient>
<linearGradient id="paint6_linear_184_79" x1="3.27725" y1="43.4891" x2="3.27725" y2="41.8505" gradientUnits="userSpaceOnUse">
<stop stop-color="#6299D0"/>
<stop offset="1" stop-color="#12235E"/>
</linearGradient>
<linearGradient id="paint7_linear_184_79" x1="12.6993" y1="43.4891" x2="12.6993" y2="41.8505" gradientUnits="userSpaceOnUse">
<stop stop-color="#6299D0"/>
<stop offset="1" stop-color="#12235E"/>
</linearGradient>
<linearGradient id="paint8_linear_184_79" x1="8.60279" y1="46.7664" x2="8.60279" y2="45.1277" gradientUnits="userSpaceOnUse">
<stop stop-color="#6299D0"/>
<stop offset="1" stop-color="#12235E"/>
</linearGradient>
</defs>
</svg>
