<svg width="105" height="105" viewBox="0 0 105 105" fill="none" xmlns="http://www.w3.org/2000/svg">
<path d="M84.6562 43.925C81.6813 28.8312 68.425 17.5 52.5 17.5C39.8563 17.5 28.875 24.675 23.4062 35.175C10.2375 36.575 0 47.7313 0 61.25C0 75.7313 11.7688 87.5 26.25 87.5H83.125C95.2 87.5 105 77.7 105 65.625C105 54.075 96.0312 44.7125 84.6562 43.925ZM83.125 78.75H26.25C16.5812 78.75 8.75 70.9188 8.75 61.25C8.75 52.2812 15.4437 44.8 24.325 43.8812L29.0063 43.4L31.1938 39.2438C35.35 31.2375 43.4875 26.25 52.5 26.25C63.9625 26.25 73.85 34.3875 76.0812 45.6313L77.3938 52.1938L84.0875 52.675C90.9125 53.1125 96.25 58.8438 96.25 65.625C96.25 72.8438 90.3438 78.75 83.125 78.75Z" fill="#04009A"/>
</svg>
