<svg width="105" height="105" viewBox="0 0 105 105" fill="none" xmlns="http://www.w3.org/2000/svg">
<path d="M52.5 8.75C28.35 8.75 8.75 28.35 8.75 52.5C8.75 76.65 28.35 96.25 52.5 96.25C76.65 96.25 96.25 76.65 96.25 52.5C96.25 28.35 76.65 8.75 52.5 8.75ZM52.5 87.5C33.2063 87.5 17.5 71.7938 17.5 52.5C17.5 33.2063 33.2063 17.5 52.5 17.5C71.7938 17.5 87.5 33.2063 87.5 52.5C87.5 71.7938 71.7938 87.5 52.5 87.5Z" fill="#04009A"/>
<path d="M52.5 26.25C38.0188 26.25 26.25 38.0188 26.25 52.5C26.25 66.9813 38.0188 78.75 52.5 78.75C66.9813 78.75 78.75 66.9813 78.75 52.5C78.75 38.0188 66.9813 26.25 52.5 26.25ZM52.5 70C42.8312 70 35 62.1688 35 52.5C35 42.8312 42.8312 35 52.5 35C62.1688 35 70 42.8312 70 52.5C70 62.1688 62.1688 70 52.5 70Z" fill="#04009A"/>
<path d="M52.5 43.75C47.6875 43.75 43.75 47.6875 43.75 52.5C43.75 57.3125 47.6875 61.25 52.5 61.25C57.3125 61.25 61.25 57.3125 61.25 52.5C61.25 47.6875 57.3125 43.75 52.5 43.75Z" fill="#04009A"/>
</svg>
