<svg width="158" height="36" viewBox="0 0 158 36" fill="none" xmlns="http://www.w3.org/2000/svg">
<mask id="mask0_189_680" style="mask-type:luminance" maskUnits="userSpaceOnUse" x="0" y="0" width="158" height="36">
<path d="M157.178 0H0V36H157.178V0Z" fill="white"/>
</mask>
<g mask="url(#mask0_189_680)">
<path d="M157.178 18C157.178 14.4399 156.122 10.9598 154.144 7.99974C152.166 5.03966 149.355 2.73255 146.066 1.37018C142.777 0.00779913 139.158 -0.348661 135.666 0.345873C132.174 1.04041 128.967 2.75474 126.45 5.27209C123.932 7.78943 122.218 10.9967 121.524 14.4884C120.829 17.98 121.186 21.5992 122.548 24.8883C123.91 28.1774 126.217 30.9886 129.177 32.9665C132.138 34.9443 135.618 36 139.178 36C143.952 35.9998 148.53 34.1033 151.905 30.7277C155.281 27.3521 157.178 22.7738 157.178 18Z" fill="#293750"/>
<path d="M24.7265 28.3706C22.9439 29.2954 20.9553 29.7517 18.9477 29.6964C16.9326 29.7308 14.945 29.2241 13.1923 28.2291C11.5131 27.2613 10.148 25.8307 9.26006 24.1079C8.30337 22.2323 7.82347 20.1499 7.86276 18.0447C7.81849 15.904 8.28947 13.784 9.23601 11.8634C10.0967 10.1388 11.4374 8.69955 13.0968 7.7189C14.8616 6.71222 16.867 6.20451 18.8982 6.25015C20.7041 6.23152 22.4917 6.61176 24.1337 7.36374C25.6722 8.06214 27.0146 9.12947 28.0418 10.471L32.782 5.63888C29.3686 1.87974 24.7098 0.000167925 18.8055 0.000167925C15.4016 -0.0673673 12.0335 0.705634 8.9997 2.2507C6.23513 3.67582 3.93463 5.86023 2.36839 8.54737C0.753447 11.3807 -0.0652457 14.598 -0.0010042 17.8587C-0.0834824 21.1261 0.710201 24.356 2.29764 27.2131C3.83318 29.9498 6.11707 32.1919 8.88155 33.6768C11.8603 35.2618 15.1942 36.0608 18.5678 35.998C21.63 36.0559 24.6683 35.4496 27.4737 34.2208C30.0523 33.0436 32.2735 31.2052 33.9119 28.892L28.8434 24.2975C27.8489 25.9903 26.4298 27.3942 24.7265 28.3706Z" fill="#293750"/>
<path d="M64.5866 17.5725C65.714 15.841 66.2987 13.8123 66.2655 11.7463C66.3086 9.66524 65.7669 7.6138 64.7019 5.82534C63.6525 4.11362 62.132 2.74055 60.3225 1.87046C58.2906 0.906153 56.0623 0.427778 53.8136 0.473168H38.6025V35.5258H46.2314V23.0683H52.4375L60.1577 35.5258H69.0636L59.9214 21.4567C61.8229 20.6459 63.445 19.2959 64.5866 17.5725ZM56.7476 15.3722C55.4952 16.3532 53.9309 16.8493 52.342 16.7695H46.2314V6.72598H53.0057C54.4449 6.65341 55.8555 7.14622 56.9365 8.09922C57.4269 8.56761 57.8117 9.13535 58.065 9.76445C58.3183 10.3935 58.4343 11.0695 58.4052 11.747C58.4245 12.4378 58.2851 13.1238 57.9977 13.7523C57.7104 14.3808 57.2827 14.935 56.7476 15.3722Z" fill="#293750"/>
<path d="M81.2843 0.473633H73.6582V35.5263H81.2843V0.473633Z" fill="#293750"/>
<path d="M110.889 16.8634C112.242 16.1642 113.392 15.1285 114.228 13.8558C115.004 12.6315 115.408 11.2081 115.389 9.75874C115.423 8.05847 114.997 6.3806 114.158 4.90182C113.338 3.49837 112.128 2.36296 110.675 1.6332C109.081 0.838018 107.318 0.440187 105.536 0.473626H89.2412V35.5263H105.584C107.717 35.5704 109.832 35.1248 111.766 34.2238C113.481 33.4331 114.927 32.1569 115.925 30.553C116.922 28.9492 117.428 27.088 117.379 25.1997C117.417 23.3233 116.806 21.4912 115.649 20.0131C114.425 18.497 112.763 17.3965 110.889 16.8627M96.868 6.72644H103.071C104.255 6.66817 105.418 7.04771 106.34 7.79263C106.74 8.13223 107.059 8.55777 107.272 9.03756C107.486 9.51736 107.588 10.0391 107.572 10.5639C107.587 11.0907 107.482 11.6141 107.264 12.0941C107.047 12.5742 106.723 12.9984 106.317 13.3344C105.369 14.0822 104.183 14.461 102.977 14.4006H96.8666L96.868 6.72644ZM108.117 28.0424C107.077 28.8688 105.773 29.2896 104.446 29.2268H96.868V20.6527H104.494C105.806 20.5952 107.093 21.016 108.118 21.837C108.57 22.2099 108.931 22.681 109.173 23.2145C109.415 23.7479 109.532 24.3297 109.515 24.9153C109.536 25.5085 109.421 26.0985 109.178 26.6403C108.936 27.1822 108.573 27.6615 108.118 28.0417" fill="#293750"/>
<path d="M133.258 13.4041C133.102 13.4042 132.949 13.3737 132.805 13.3143C132.662 13.255 132.532 13.168 132.422 13.0582C132.312 12.9485 132.225 12.8182 132.166 12.6748C132.107 12.5314 132.076 12.3777 132.076 12.2226V10.2006C132.076 9.8872 132.201 9.58668 132.422 9.3651C132.644 9.14352 132.944 9.01904 133.258 9.01904C133.571 9.01904 133.872 9.14352 134.093 9.3651C134.315 9.58668 134.439 9.8872 134.439 10.2006V12.2226C134.439 12.3777 134.409 12.5314 134.349 12.6748C134.29 12.8182 134.203 12.9485 134.093 13.0582C133.984 13.168 133.853 13.255 133.71 13.3143C133.567 13.3737 133.413 13.4042 133.258 13.4041Z" fill="white"/>
<path d="M146.438 12.4589L141.238 8.81604C140.497 8.33243 139.627 8.08475 138.743 8.10572C137.859 8.12669 137.002 8.41531 136.285 8.93349L131.751 12.4709C131.272 12.8805 130.882 13.3835 130.604 13.9492C130.326 14.5149 130.167 15.1313 130.136 15.7608V21.9952C130.135 23.1031 130.575 24.1659 131.357 24.9499C132.14 25.734 133.202 26.1752 134.31 26.1765H144.053C145.16 26.1755 146.221 25.7355 147.003 24.9528C147.786 24.1702 148.226 23.1091 148.227 22.0023V15.8747C148.194 15.2098 148.017 14.56 147.708 13.9702C147.399 13.3805 146.965 12.8648 146.438 12.4589Z" fill="white"/>
<path d="M137.529 17.6283H136.084C135.87 17.6283 135.664 17.543 135.512 17.3911C135.36 17.2391 135.274 17.0331 135.274 16.8183V15.3736C135.274 15.1587 135.36 14.9527 135.512 14.8007C135.664 14.6488 135.87 14.5635 136.084 14.5635H137.529C137.744 14.5635 137.95 14.6488 138.102 14.8007C138.254 14.9527 138.339 15.1587 138.339 15.3736V16.8183C138.339 17.0331 138.254 17.2391 138.102 17.3911C137.95 17.543 137.744 17.6283 137.529 17.6283Z" fill="#293750"/>
<path d="M142.27 17.6283H140.826C140.719 17.6283 140.614 17.6074 140.516 17.5667C140.417 17.526 140.328 17.4663 140.253 17.3911C140.178 17.3158 140.118 17.2265 140.077 17.1283C140.037 17.03 140.016 16.9246 140.016 16.8183V15.3736C140.016 15.2672 140.037 15.1618 140.077 15.0636C140.118 14.9653 140.178 14.876 140.253 14.8007C140.328 14.7255 140.417 14.6659 140.516 14.6251C140.614 14.5844 140.719 14.5635 140.826 14.5635H142.27C142.485 14.5635 142.691 14.6488 142.843 14.8007C142.995 14.9527 143.08 15.1587 143.08 15.3736V16.8183C143.08 17.0331 142.995 17.2391 142.843 17.3911C142.691 17.543 142.485 17.6283 142.27 17.6283Z" fill="#293750"/>
<path d="M137.529 22.1537H136.084C135.87 22.1537 135.664 22.0684 135.512 21.9165C135.36 21.7645 135.274 21.5585 135.274 21.3436V19.8989C135.274 19.6841 135.36 19.4781 135.512 19.3261C135.664 19.1742 135.87 19.0889 136.084 19.0889H137.529C137.744 19.0889 137.95 19.1742 138.102 19.3261C138.254 19.4781 138.339 19.6841 138.339 19.8989V21.3436C138.339 21.5585 138.254 21.7645 138.102 21.9165C137.95 22.0684 137.744 22.1537 137.529 22.1537Z" fill="#293750"/>
<path d="M142.27 22.1537H140.826C140.719 22.1537 140.614 22.1328 140.516 22.0921C140.417 22.0513 140.328 21.9917 140.253 21.9165C140.178 21.8412 140.118 21.7519 140.077 21.6536C140.037 21.5554 140.016 21.45 140.016 21.3436V19.8989C140.016 19.7926 140.037 19.6872 140.077 19.5889C140.118 19.4907 140.178 19.4014 140.253 19.3261C140.328 19.2509 140.417 19.1912 140.516 19.1505C140.614 19.1098 140.719 19.0889 140.826 19.0889H142.27C142.485 19.0889 142.691 19.1742 142.843 19.3261C142.995 19.4781 143.08 19.6841 143.08 19.8989V21.3436C143.08 21.5585 142.995 21.7645 142.843 21.9165C142.691 22.0684 142.485 22.1537 142.27 22.1537Z" fill="#293750"/>
</g>
</svg>
